<?xml version="1.0" standalone="no"?>
<!DOCTYPE svg PUBLIC "-//W3C//DTD SVG 20010904//EN"
 "http://www.w3.org/TR/2001/REC-SVG-20010904/DTD/svg10.dtd">
<svg version="1.0" xmlns="http://www.w3.org/2000/svg"
 width="589.000000pt" height="720.000000pt" viewBox="0 0 589.000000 720.000000"
 preserveAspectRatio="xMidYMid meet">
<metadata>
Created by potrace 1.10, written by Peter Selinger 2001-2011
</metadata>
<g transform="translate(0.000000,720.000000) scale(0.100000,-0.100000)"
fill="#000000" stroke="none">
<path d="M1543 7184 c-66 -33 -113 -127 -113 -228 0 -79 18 -127 61 -167 l39
-36 0 -818 0 -818 -47 -86 c-25 -47 -350 -635 -720 -1305 -371 -671 -688
-1245 -704 -1278 -102 -202 -71 -390 93 -563 75 -79 152 -129 247 -162 l66
-22 1785 0 1785 0 66 22 c187 64 332 211 384 392 23 78 16 190 -17 271 -13 32
-344 637 -735 1344 -390 707 -722 1308 -737 1337 l-26 52 0 817 0 816 39 38
c31 30 42 50 51 95 25 120 -16 244 -95 291 l-42 24 -674 0 c-595 0 -678 -2
-706 -16z m1331 -156 c11 -15 16 -45 16 -90 0 -76 -19 -108 -65 -108 l-25 0 0
-926 0 -927 52 -96 c64 -120 929 -1721 1125 -2083 195 -360 198 -367 198 -498
0 -94 -3 -110 -26 -155 -51 -95 -157 -177 -289 -221 -52 -18 -124 -19 -1565
-22 -1067 -2 -1529 0 -1575 8 -147 25 -301 135 -358 257 -24 52 -27 69 -27
163 0 100 2 109 36 180 29 61 680 1269 1064 1975 51 94 131 243 179 332 l86
162 0 926 0 925 -25 0 c-14 0 -37 11 -50 25 -34 33 -36 128 -4 169 l20 26 609
0 609 0 15 -22z"/>
<path d="M2475 6785 l-25 -24 0 -811 0 -811 25 -24 c44 -45 115 -24 130 37 3
13 4 382 3 821 l-3 799 -24 19 c-32 26 -77 24 -106 -6z"/>
<path d="M2707 4588 c-30 -11 -109 -54 -250 -136 -106 -62 -206 -107 -301
-135 -59 -18 -97 -21 -226 -21 -145 1 -162 3 -255 32 -55 17 -100 30 -101 29
-1 -1 -103 -189 -226 -417 -124 -228 -340 -624 -479 -880 -139 -256 -261 -487
-271 -515 -10 -30 -17 -80 -18 -126 0 -65 4 -85 30 -136 40 -79 111 -145 208
-191 l77 -37 1349 -3 c878 -1 1369 1 1405 8 31 5 88 26 128 45 128 63 203 171
203 293 0 110 1 107 -715 1467 -29 55 -117 222 -195 370 -153 292 -176 327
-220 350 -33 17 -101 18 -143 3z m-123 -632 c45 -19 66 -52 66 -104 0 -120
-172 -143 -210 -28 -22 69 23 133 103 145 4 0 23 -5 41 -13z m-743 -305 c72
-45 106 -141 76 -213 l-15 -36 56 20 c145 51 310 -19 379 -160 37 -75 39 -191
6 -263 -64 -142 -223 -217 -368 -174 -142 41 -228 154 -228 302 0 60 5 82 29
131 l29 58 -62 0 c-53 -1 -67 3 -104 29 -55 39 -79 86 -79 153 0 59 15 94 57
134 60 57 152 65 224 19z"/>
</g>
</svg>
