<svg id="svg" version="1.1" xmlns="http://www.w3.org/2000/svg" xmlns:xlink="http://www.w3.org/1999/xlink" width="400" height="462.44725738396625" viewBox="0, 0, 400,462.44725738396625"><g id="svgg"><path id="path0" d="M200.571 15.460 C 185.545 19.550,172.200 38.257,172.168 55.274 C 172.150 65.066,170.953 65.845,163.917 60.643 C 155.744 54.601,147.408 53.667,91.139 52.492 C 54.993 51.737,34.704 50.663,31.646 49.343 L 27.004 47.341 27.004 65.021 C 27.004 83.892,27.302 84.595,33.019 79.224 C 39.947 72.715,143.460 74.514,143.460 81.144 C 143.460 82.000,140.042 82.700,135.865 82.700 C 126.572 82.700,125.381 87.214,133.156 92.963 L 138.042 96.575 137.797 148.065 L 137.553 199.554 124.630 204.117 C 18.772 241.495,19.516 392.876,125.738 429.578 C 225.894 464.184,318.389 357.368,270.461 262.447 C 260.546 242.809,238.972 220.945,220.253 211.562 L 206.751 204.794 206.317 151.110 L 205.883 97.425 212.092 92.058 C 219.654 85.521,218.523 82.700,208.339 82.700 L 200.844 82.700 200.844 74.879 C 200.844 41.067,222.565 45.720,241.350 83.556 C 241.814 84.491,248.650 94.237,256.540 105.214 C 271.434 125.933,279.263 137.472,281.307 141.719 C 281.963 143.082,287.129 150.677,292.785 158.596 C 298.442 166.516,308.949 181.730,316.134 192.405 C 323.320 203.080,332.276 216.100,336.036 221.337 C 342.096 229.780,342.625 231.255,340.698 234.341 C 339.503 236.255,339.029 238.325,339.645 238.942 C 340.710 240.007,383.102 240.245,384.156 239.192 C 384.432 238.916,378.261 229.605,370.442 218.501 C 362.624 207.397,350.490 189.958,343.479 179.747 C 323.379 150.471,302.323 120.294,289.030 101.710 C 282.300 92.301,276.793 83.833,276.793 82.892 C 276.793 81.950,275.831 80.573,274.656 79.831 C 272.632 78.553,259.737 60.118,246.154 39.085 C 233.080 18.841,217.609 10.822,200.571 15.460 M222.785 22.077 C 230.378 25.514,239.306 34.245,243.356 42.194 C 244.538 44.515,247.854 49.451,250.725 53.165 C 253.595 56.878,261.712 68.668,268.762 79.366 C 275.812 90.064,285.009 103.355,289.198 108.902 C 302.222 126.144,302.958 127.183,308.903 136.709 C 312.089 141.814,319.158 152.049,324.610 159.452 C 330.063 166.855,340.157 181.286,347.041 191.520 C 353.926 201.753,363.341 215.394,367.965 221.831 C 378.761 236.863,378.923 236.503,361.622 235.931 C 348.643 235.502,346.799 235.055,346.255 232.210 C 345.915 230.432,342.489 224.493,338.641 219.011 C 331.552 208.910,327.567 202.994,317.782 188.038 C 312.395 179.804,290.468 147.602,275.935 126.582 C 271.763 120.549,262.446 106.878,255.230 96.203 C 226.327 53.443,223.976 50.342,218.496 47.728 C 207.131 42.309,197.489 51.074,197.445 66.866 C 197.403 81.899,196.786 82.700,185.245 82.700 L 175.103 82.700 175.843 63.367 C 177.160 28.946,197.817 10.776,222.785 22.077 M87.764 56.681 C 157.997 57.991,168.776 60.902,168.776 78.560 C 168.776 84.825,152.102 84.793,147.166 78.519 C 145.357 76.218,141.822 73.555,139.311 72.601 C 135.296 71.074,39.956 69.845,33.629 71.238 C 32.048 71.586,31.201 69.067,30.737 62.633 C 30.099 53.787,30.190 53.567,34.028 54.645 C 36.199 55.254,60.380 56.170,87.764 56.681 M146.877 92.093 C 150.519 101.673,148.935 197.468,145.134 197.468 C 141.813 197.468,141.747 196.438,141.824 145.719 C 141.875 112.080,141.289 93.357,140.150 92.217 C 137.424 89.492,138.070 87.764,141.814 87.764 C 143.929 87.764,145.858 89.413,146.877 92.093 M169.895 97.046 C 170.046 101.688,170.306 125.992,170.473 151.055 L 170.776 196.624 161.812 196.624 L 152.849 196.624 152.523 142.111 L 152.198 87.598 160.909 88.103 L 169.620 88.608 169.895 97.046 M195.975 94.937 C 197.074 135.492,196.936 200.844,195.750 200.844 C 175.541 200.844,175.928 201.996,175.730 141.158 C 175.542 83.469,174.668 87.764,186.597 87.764 L 195.781 87.764 195.975 94.937 M148.523 260.859 C 148.523 314.538,148.020 320.262,143.753 315.121 C 141.219 312.068,141.448 205.507,143.993 203.909 C 148.097 201.330,148.523 206.687,148.523 260.859 M172.070 259.916 L 172.284 317.300 162.935 317.300 C 157.793 317.300,153.577 316.730,153.565 316.034 C 152.930 279.360,152.796 203.885,153.364 203.316 C 153.796 202.885,158.133 202.532,163.002 202.532 L 171.856 202.532 172.070 259.916 M193.462 206.022 C 197.026 207.344,197.049 207.721,196.838 261.904 L 196.624 316.456 186.498 316.456 L 176.371 316.456 176.246 260.759 C 176.178 230.127,176.427 204.470,176.800 203.746 C 177.504 202.378,187.208 203.704,193.462 206.022 M138.397 255.188 C 138.397 299.978,138.138 304.459,135.443 306.444 C 132.630 308.516,132.630 308.674,135.443 309.765 C 137.068 310.394,138.397 312.230,138.397 313.843 C 138.397 321.462,152.268 326.189,173.741 325.887 C 207.273 325.416,206.066 327.672,205.994 265.610 C 205.927 207.035,205.425 209.007,218.765 215.424 C 242.258 226.725,268.308 259.499,275.192 286.414 C 280.303 306.400,280.112 307.173,270.042 307.173 C 265.401 307.173,261.603 307.932,261.603 308.861 C 261.603 309.789,265.350 310.549,269.928 310.549 C 280.985 310.549,281.209 311.319,277.537 336.709 C 263.002 437.213,124.145 465.794,68.450 379.747 C 52.361 354.890,42.253 313.478,51.416 309.961 C 53.529 309.151,53.557 308.376,51.609 304.622 C 45.513 292.871,61.545 257.135,82.771 235.162 C 96.303 221.154,131.380 201.918,137.131 205.351 C 137.827 205.766,138.397 228.193,138.397 255.188 M57.384 307.970 C 57.384 310.259,59.119 310.627,67.932 310.207 C 81.228 309.574,80.971 306.836,67.530 305.921 C 59.010 305.341,57.384 305.669,57.384 307.970 M86.473 306.740 C 79.534 307.964,84.419 310.549,93.671 310.549 C 100.777 310.549,109.392 307.497,103.475 307.076 C 102.724 307.022,99.451 306.773,96.203 306.522 C 92.954 306.271,88.575 306.369,86.473 306.740 M108.882 307.139 C 108.288 308.099,108.897 309.304,110.234 309.818 C 113.987 311.258,129.221 309.896,128.270 308.205 C 127.032 306.005,110.156 305.077,108.882 307.139 M210.093 307.227 C 209.530 308.139,210.163 309.304,211.500 309.818 C 215.377 311.305,230.380 309.874,230.380 308.017 C 230.380 305.808,211.427 305.070,210.093 307.227 M234.599 308.861 C 234.599 309.813,239.381 310.549,245.570 310.549 C 251.758 310.549,256.540 309.813,256.540 308.861 C 256.540 307.909,251.758 307.173,245.570 307.173 C 239.381 307.173,234.599 307.909,234.599 308.861 M114.768 374.414 C 114.768 415.339,113.208 411.109,128.042 410.413 L 139.923 409.856 139.582 374.970 L 139.241 340.084 127.004 339.674 L 114.768 339.263 114.768 374.414 M179.383 340.436 C 166.309 342.924,163.822 365.020,175.528 374.684 C 176.090 375.148,178.770 378.565,181.484 382.278 C 184.199 385.992,188.905 392.014,191.944 395.662 C 195.123 399.479,197.468 404.192,197.468 406.763 C 197.468 412.957,205.914 411.768,211.827 404.740 C 220.647 394.258,218.715 389.167,194.526 359.158 C 188.411 351.571,185.591 346.625,185.955 344.125 C 186.542 340.094,185.185 339.332,179.383 340.436 M192.405 341.367 C 192.405 342.537,194.114 345.385,196.203 347.697 C 198.291 350.008,202.658 355.483,205.907 359.863 C 213.484 370.079,214.140 369.938,213.543 358.228 C 213.270 352.890,212.960 346.435,212.853 343.882 C 212.637 338.733,192.405 336.245,192.405 341.367 M158.980 384.674 C 157.781 387.384,153.845 394.173,150.233 399.760 C 142.922 411.073,143.319 411.702,156.963 410.411 L 162.871 409.852 162.906 394.800 C 162.943 378.574,162.354 377.053,158.980 384.674 M167.880 394.937 L 167.828 410.127 172.944 410.145 C 175.757 410.155,180.907 410.634,184.388 411.210 C 192.930 412.622,192.568 410.514,182.110 397.949 C 177.376 392.260,172.698 385.838,171.713 383.677 C 168.675 377.008,167.934 379.183,167.880 394.937 " stroke="none" fill="#000000" fill-rule="evenodd"></path></g></svg>